#!OML:ASF C:\ViconDB\ViconDB\414\Spring2016\041811\Spring2016.ASF
:FULLY-SPECIFIED
:DEGREES
326
root 5.38618 17.5425 -52.7234 -165.537 -2.99088 -181.378
lowerback 13.7949 0.325925 -2.30215
upperback -0.127985 -0.0134175 0.0205198
thorax -7.89518 0.0525874 1.33194
lowerneck -16.3685 -5.31265 -13.5636
upperneck 8.53088 -6.6242 16.7023
head 6.33359 -2.59561 6.98175
rclavicle -2.31087e-015 -4.52235e-015
rhumerus -32.3064 3.61004 -88.7389
rradius 60.7518
rwrist 3.82278
rhand -45.1994 -16.7993
rfingers 7.12502
rthumb -17.9756 -45.9886
lclavicle -2.31087e-015 -4.52235e-015
lhumerus -7.79066 0.386515 71.7088
lradius 76.1003
lwrist 0.338643
lhand -33.2403 14.8983
lfingers 7.12502
lthumb -6.44617 44.7802
rfemur -15.7792 -21.4975 12.7171
rtibia 49.8252
rfoot -8.26404 -4.23181
rtoes -1.0218
lfemur -19.9168 4.59902 -15.8521
ltibia 48.4395
lfoot -25.4252 1.23938
ltoes -27.98
327
root 5.34267 17.8155 -53.1903 -165.972 -2.39668 -181.232
lowerback 12.396 0.376619 -2.2377
upperback -0.598938 0.120458 -0.0919035
thorax -7.61264 0.12768 1.14659
lowerneck -16.5004 -5.12752 -13.2244
upperneck 10.1631 -6.59358 16.4588
head 6.83962 -2.55657 6.87444
rclavicle 7.81472e-015 -3.37934e-015
rhumerus -32.3064 3.61004 -88.7389
rradius 60.7518
rwrist 3.82278
rhand -45.1994 -16.7993
rfingers 7.12502
rthumb -17.9756 -45.9886
lclavicle 7.81472e-015 -3.37934e-015
lhumerus -7.79066 0.386515 71.7088
lradius 76.1003
lwrist 0.338643
lhand -33.2403 14.8983
lfingers 7.12502
lthumb -6.44617 44.7802
rfemur -13.5068 -20.9401 12.0144
rtibia 48.08
rfoot -11.9448 -1.0398
rtoes -3.55677
lfemur -15.8206 3.59503 -15.863
ltibia 44.5197
lfoot -21.5093 2.31299
ltoes -28.8907
328
root 5.29847 18.1045 -53.65 -166.536 -1.80276 -181.046
lowerback 11.3748 0.43994 -2.1384
upperback -1.02694 0.258039 -0.132382
thorax -7.49365 0.200789 1.02239
lowerneck -16.7051 -4.94778 -12.8696
upperneck 11.6751 -6.5382 16.0899
head 7.31732 -2.51716 6.72435
rclavicle -4.50372e-015 6.99474e-015
rhumerus -32.3064 3.61004 -88.7389
rradius 60.7518
rwrist 3.82278
rhand -45.1994 -16.7993
rfingers 7.12502
rthumb -17.9756 -45.9886
lclavicle -4.50372e-015 6.99474e-015
lhumerus -7.79066 0.386515 71.7088
lradius 76.1003
lwrist 0.338643
lhand -33.2403 14.8983
lfingers 7.12502
lthumb -6.44617 44.7802
rfemur -11.5734 -20.8121 11.3246
rtibia 46.6328
rfoot -16.1938 2.62034
rtoes -6.14181
lfemur -11.9628 2.48981 -15.8739
ltibia 40.9263
lfoot -16.9096 3.39053
ltoes -28.9665
329
root 5.25941 18.4061 -54.0963 -167.156 -1.40121 -180.833
lowerback 10.6729 0.531234 -2.00079
upperback -1.41882 0.432314 -0.0237663
thorax -7.51734 0.291295 1.03017
lowerneck -16.8152 -4.8796 -12.8904
upperneck 12.8856 -6.52191 15.7783
head 7.70928 -2.51829 6.6504
rclavicle 4.95719e-015 -1.06847e-015
rhumerus -32.3064 3.61004 -88.7389
rradius 60.7518
rwrist 3.82278
rhand -45.1994 -16.7993
rfingers 7.12502
rthumb -17.9756 -45.9886
lclavicle 4.95719e-015 -1.06847e-015
lhumerus -7.79066 0.386515 71.7088
lradius 76.1003
lwrist 0.338643
lhand -33.2403 14.8983
lfingers 7.12502
lthumb -6.44617 44.7802
rfemur -9.80558 -20.7237 10.8169
rtibia 45.1608
rfoot -20.8257 7.21319
rtoes -10.5999
lfemur -8.34784 1.33582 -15.8448
ltibia 37.2032
lfoot -11.3325 4.89459
ltoes -28.5338
330
root 5.22788 18.6945 -54.5266 -167.734 -1.13015 -180.748
lowerback 10.064 0.597007 -2.07604
upperback -1.8194 0.535783 0.0901469
thorax -7.6026 0.35463 1.17702
lowerneck -16.8458 -4.80622 -12.895
upperneck 14.0022 -6.52869 15.5561
head 8.06826 -2.5359 6.60128
rclavicle -1.02871e-014 2.98177e-016
rhumerus -32.3064 3.61004 -88.7389
rradius 60.7518
rwrist 3.82278
rhand -45.1994 -16.7993
rfingers 7.12502
rthumb -17.9756 -45.9886
lclavicle -1.02871e-014 2.98177e-016
lhumerus -7.79066 0.386515 71.7088
lradius 76.1003
lwrist 0.338643
lhand -33.2403 14.8983
lfingers 7.12502
lthumb -6.44617 44.7802
rfemur -8.38598 -21.0647 10.189
rtibia 44.0717
rfoot -24.2407 10.7638
rtoes -12.1564
lfemur -5.32986 0.34198 -15.9796
ltibia 33.9479
lfoot -5.05527 6.95214
ltoes -27.4936
331
root 5.22788 18.6945 -54.5266 -167.734 -1.13015 -180.748
lowerback 10.064 0.597007 -2.07604
upperback -1.8194 0.535783 0.0901469
thorax -7.6026 0.35463 1.17702
lowerneck -16.8458 -4.80622 -12.895
upperneck 14.0022 -6.52869 15.5561
head 8.06826 -2.5359 6.60128
rclavicle -1.02871e-014 2.98177e-016
rhumerus -32.3064 3.61004 -88.7389
rradius 60.7518
rwrist 3.82278
rhand -45.1994 -16.7993
rfingers 7.12502
rthumb -17.9756 -45.9886
lclavicle -1.02871e-014 2.98177e-016
lhumerus -7.79066 0.386515 71.7088
lradius 76.1003
lwrist 0.338643
lhand -33.2403 14.8983
lfingers 7.12502
lthumb -6.44617 44.7802
rfemur -8.38598 -21.0647 10.189
rtibia 44.0717
rfoot -24.2407 10.7638
rtoes -12.1564
lfemur -5.32986 0.34198 -15.9796
ltibia 33.9479
lfoot -5.05527 6.95214
ltoes -27.4936
